PathFileType	4	(X/Y/Z)	D:\TRACE\spotREDO_2-26-24\spot_Both_Motion_1_6-v60.trc
DataRate	CameraRate	NumFrames	NumMarkers	Units	OrigDataRate	OrigDataStartFrame	OrigNumFrames
100.00	100.00	      34	9	mm	100.00	3501	      7000
Frame#	Time	front left toe			Front right toe			aft left toe			aft right toe			Arm			FL body			FR body			AL Body			AR Body			
		X1	Y1	Z1	X2	Y2	Z2	X3	Y3	Z3	X4	Y4	Z4	X5	Y5	Z5	X6	Y6	Z6	X7	Y7	Z7	X8	Y8	Z8	X9	Y9	Z9	

3501	35.000	-242.61386	124.64375	-430.72250	174.21156	40.86954	-474.74265	-263.80981	12.72697	148.70070	153.23648	17.99919	188.25531	-108.54562	764.74451	-752.59125	-139.67578	609.00562	-490.56323	16.04125	614.92426	-489.94348	-145.99744	543.99719	391.31845	-4.78603	549.65375	393.44727	
3502	35.010	-243.78648	113.36771	-430.42764	175.19250	41.42717	-474.32050	-263.03391	12.53828	148.60443	153.85851	18.30156	188.16364	-108.21955	764.65247	-753.00549	-141.60944	609.61469	-490.51425	14.45169	615.41431	-489.94620	-147.11189	544.06830	391.29013	-5.81067	549.71637	393.45511	
3503	35.020	-244.68762	101.58640	-429.15228	175.18311	40.61614	-475.33182	-262.45908	12.46573	148.83688	154.59605	18.53375	188.07863	-107.67873	764.60156	-753.27295	-142.87799	609.99738	-490.29474	11.80343	616.29401	-489.79889	-148.20445	543.98041	391.53894	-6.87949	549.68530	393.38104	
3504	35.030	-245.41376	90.85202	-428.38577	175.62755	40.67536	-475.43930	-262.10019	12.56518	148.76138	155.23125	18.58361	187.77069	-107.28648	764.44775	-753.40485	-144.67886	610.10992	-490.13596	10.30187	616.60089	-489.81592	-149.53297	544.13092	391.47174	-8.21915	549.65857	393.36832	
3505	35.040	-246.56073	80.55087	-427.07632	176.36829	40.74321	-475.36389	-261.27057	12.29619	148.71115	155.71295	18.73766	187.60074	-106.71748	764.38715	-753.50464	-146.26802	610.16827	-490.27661	8.80119	616.91125	-490.02921	-150.78571	544.30658	391.50171	-9.52971	550.03168	393.35214	
3506	35.050	-247.39461	70.02102	-426.61099	177.18262	40.63462	-475.49753	-260.14047	12.01839	148.90874	156.30254	19.36156	187.83678	-106.16065	764.36584	-753.64764	-148.03029	610.38324	-490.18246	7.61525	617.30347	-490.59216	-151.96811	544.16711	391.18738	-11.14600	550.17285	393.31583	
3507	35.060	-248.94353	60.31649	-426.80109	177.83498	40.57089	-475.49982	-259.84140	12.06432	148.79544	157.02513	19.76913	187.64842	-105.94474	764.36078	-753.85107	-149.91479	610.60187	-490.54172	5.98568	617.32166	-490.50977	-154.06537	544.56964	391.35925	-12.68844	550.42255	393.32578	
3508	35.070	-249.62100	50.16904	-426.80615	178.50230	40.04533	-476.27509	-259.57721	12.15636	148.65157	157.65228	19.97530	187.62508	-105.64261	764.30328	-754.14124	-151.59013	610.55396	-490.45859	4.13154	617.26294	-490.92987	-155.37685	544.51019	390.89175	-14.41713	550.57520	393.00540	
3509	35.080	-250.00739	40.06202	-426.90662	178.98318	40.28227	-475.94080	-258.75235	12.06703	148.53128	158.27397	20.00198	187.59386	-105.32690	764.18390	-754.37732	-153.43626	610.66766	-490.90494	2.29910	617.25220	-490.81857	-157.48419	544.88544	390.98541	-16.30814	550.56940	393.03922	
3510	35.090	-249.38338	33.20292	-429.33490	179.54019	40.22055	-476.18707	-257.77792	11.90054	148.56093	158.97261	20.06523	187.47839	-105.19502	764.07275	-754.55127	-154.70103	610.53729	-491.10217	0.58606	617.23962	-491.13586	-159.86578	545.14349	390.64435	-18.25940	550.74609	392.75388	
3511	35.100	-249.60440	31.15635	-428.51141	180.47466	40.68580	-475.85730	-257.38181	11.76902	148.42786	159.82800	20.09776	187.56728	-105.14200	764.01221	-754.82758	-156.87639	611.46710	-491.43777	-1.27561	617.61053	-491.43274	-161.69676	545.16565	390.38599	-20.66330	550.57037	392.20856	
3512	35.110	-249.93857	30.84356	-427.42453	180.51085	41.76519	-477.47549	-257.26773	11.33850	148.37909	159.77455	20.77796	186.68927	-105.18646	764.10083	-754.83582	-158.41576	612.77173	-491.63644	-2.97789	618.53247	-491.55023	-163.33353	544.96729	389.80576	-22.46793	550.47809	392.21600	
3513	35.120	-248.93678	30.52765	-427.99536	179.21646	41.33662	-477.93039	-257.50906	10.30329	148.55672	159.03058	21.18217	186.52197	-105.23309	764.27069	-754.87909	-160.46367	614.14728	-491.68927	-5.01832	619.33502	-491.83414	-165.41223	545.37170	389.67184	-24.27206	549.81097	391.58301	
3514	35.130	-248.42886	30.61623	-428.13995	179.51497	41.17476	-478.34650	-257.08743	10.18671	148.25829	159.51039	21.79742	187.04588	-105.17604	764.74902	-755.07605	-161.48221	615.29333	-492.00601	-5.89440	619.91522	-491.99374	-167.14030	545.54352	389.23392	-25.99610	549.75610	391.64789	
3515	35.140	-247.30814	30.42324	-428.46945	181.70441	41.48545	-477.63751	-255.87186	10.11297	148.05269	159.65753	22.32463	186.94763	-105.26963	765.25061	-755.09082	-162.83601	616.26636	-492.41776	-7.27220	620.53210	-492.29977	-169.39900	546.30609	388.97949	-27.92066	550.38037	391.19016	
3516	35.150	-246.49217	30.09653	-428.61530	182.33379	41.69153	-477.59714	-255.39740	9.94237	147.91428	160.10727	22.51496	187.00162	-104.35864	766.09088	-754.90320	-163.78900	617.03503	-492.71555	-8.24627	620.83820	-492.64539	-170.77345	546.93195	388.77298	-29.49033	550.70526	390.86713	
3517	35.160	-245.70557	29.52502	-428.48605	182.59097	40.59670	-478.82382	-254.89749	10.00273	147.66161	160.91444	22.49515	186.94807	-103.57581	766.18823	-754.57574	-164.94342	617.72638	-493.19598	-8.86784	621.43542	-492.58475	-172.19896	547.44855	388.20010	-30.96112	550.94482	390.58377	
3518	35.170	-244.96503	29.43185	-428.63724	183.37050	40.58157	-478.78210	-253.92673	9.75386	147.78357	161.59163	22.75544	186.87863	-103.10362	766.30267	-754.49847	-165.58638	618.22797	-493.55402	-9.76879	621.99243	-492.97906	-173.32919	547.93793	387.91818	-32.09206	551.53064	390.16382	
3519	35.180	-244.32689	29.46434	-428.83508	184.57858	40.80794	-478.52155	-253.06712	9.82439	147.85161	162.43970	22.94252	186.61479	-102.75871	766.38123	-754.67114	-166.06734	618.60455	-493.97043	-11.09296	622.64960	-493.84439	-174.61937	548.51660	387.21939	-33.28797	552.26001	389.80331	
3520	35.190	-242.92838	28.89146	-429.02008	185.37259	40.82079	-478.80325	-252.36557	9.87253	147.80838	163.54097	23.03936	186.40685	-102.59249	766.33124	-754.67999	-166.59015	618.96399	-494.61697	-10.89488	623.05664	-494.14923	-175.48499	548.96954	386.75146	-33.94221	552.66992	389.37451	
3521	35.200	-242.53265	28.40507	-429.28729	185.68686	40.66122	-479.07730	-251.57097	9.67182	147.59181	164.04654	23.22558	186.29997	-103.11051	766.18134	-754.59442	-166.65373	619.18823	-495.19321	-11.16605	623.28131	-494.48068	-176.16025	549.32086	386.22903	-34.74169	553.20972	388.81940	
3522	35.210	-241.76195	28.06664	-429.54114	187.16379	40.47820	-478.91348	-250.97522	9.66480	147.51192	164.98343	23.43449	186.07225	-103.36622	765.93915	-754.68915	-166.70465	619.29498	-495.69598	-11.32633	623.63007	-495.02725	-176.29483	549.53601	385.39206	-35.50393	553.89331	388.31516	
3523	35.220	-240.78618	27.77308	-429.64032	187.43503	39.84391	-479.28781	-250.07422	9.64127	147.45959	165.94565	23.44113	185.91440	-103.58077	765.70380	-755.04999	-166.99992	619.47443	-496.33896	-11.37876	623.88843	-495.71921	-177.09940	550.38580	385.14578	-35.73014	554.27484	387.89816	
3524	35.230	-239.70021	27.40481	-429.64789	188.35052	39.71174	-479.45404	-249.21167	9.88653	147.18675	166.65915	23.60090	185.62871	-103.93324	765.31018	-755.00201	-166.99609	619.72284	-497.16858	-11.30717	624.06989	-496.21964	-177.16302	550.91040	384.47983	-35.71219	555.01117	387.20059	
3525	35.240	-239.16260	27.20104	-429.62262	189.11264	39.39237	-479.80231	-248.53073	9.93271	147.08084	167.61626	23.80445	185.63106	-104.14986	765.19031	-755.27850	-166.82477	619.60046	-497.70425	-11.32601	624.19568	-496.51022	-176.78638	551.36047	383.80609	-35.54280	555.65253	386.58200	
3526	35.250	-238.37886	26.77404	-429.71863	190.27292	39.70440	-479.41119	-247.12987	9.79133	146.93524	168.61476	23.95661	185.42336	-104.07204	765.08197	-755.51434	-166.71794	619.21478	-498.16959	-11.47230	624.14703	-497.61447	-176.35295	551.68286	383.35672	-35.31693	556.18469	385.98560	
3527	35.260	-237.51215	26.33272	-430.04645	191.06961	39.14313	-479.99170	-246.34149	10.05494	146.60526	169.44345	24.09106	185.32147	-103.94476	764.96234	-755.86932	-166.76654	618.81403	-498.69684	-11.76303	624.08905	-498.43008	-176.07217	552.32495	382.74576	-34.75930	556.88470	385.34067	
3528	35.270	-236.90244	26.07301	-430.04947	191.69543	38.91544	-479.98431	-245.42461	10.57092	146.37956	170.31528	24.23940	184.98599	-103.55853	764.85248	-756.29303	-166.78609	618.76465	-499.57895	-11.11244	623.97412	-498.95987	-175.17296	552.84131	382.12543	-34.10482	557.40991	384.60596	
3529	35.280	-235.89084	25.89277	-430.30756	194.06140	39.52579	-479.43314	-244.19637	10.56454	146.30690	171.40257	24.46741	184.89015	-103.03356	764.86768	-756.62842	-166.33719	618.72363	-500.21909	-10.76354	623.86700	-499.73969	-174.23160	553.30127	381.54276	-33.16582	557.70679	383.84448	
3530	35.290	-235.52911	25.68069	-430.56342	193.34245	38.28851	-480.52521	-243.33841	10.86525	146.18614	172.13930	24.57489	184.88666	-102.51526	764.73138	-757.00153	-165.87169	618.73676	-500.86392	-10.24936	623.75049	-500.42151	-173.61913	553.84314	380.89310	-32.19436	558.47052	383.52536	
3531	35.300	-233.76329	25.38437	-430.48993	194.38165	38.01825	-480.64365	-242.43631	11.00428	146.33304	173.18723	24.74271	184.48233	-101.54092	764.68811	-757.31952	-165.12912	618.65997	-501.51355	-9.51795	623.56549	-501.07300	-172.53455	554.22345	380.29083	-31.20816	558.57404	382.64923	
3532	35.310	-233.15959	25.04419	-430.67395	195.34978	38.19961	-480.34625	-241.28625	10.63952	146.25174	174.05827	24.75512	184.40271	-100.92729	764.38867	-757.68848	-164.37865	618.38062	-502.07596	-8.70313	623.48193	-501.88702	-171.82430	554.53894	379.67426	-30.20552	558.83118	382.05478	
3533	35.320	-232.12758	24.92402	-430.93860	196.56293	38.00697	-480.38000	-240.45345	10.64905	146.14394	175.05513	24.83117	184.32007	-99.99775	764.21234	-757.64154	-163.16217	618.28284	-502.83807	-7.64937	623.42041	-502.45642	-170.80019	554.71045	379.06076	-29.35405	559.31714	381.42133	
3534	35.330	-230.98949	24.69599	-431.26242	197.98276	38.14158	-480.86157	-239.53630	11.17314	145.81717	176.01418	24.65348	184.26064	-98.80758	763.29413	-757.40393	-162.07042	618.44757	-503.38593	-6.77104	623.38129	-503.18781	-169.41643	554.81372	378.33139	-28.45423	559.28186	380.65070	
